<?xml version="1.0" encoding="UTF-8"?>
<svg id="Layer_2" data-name="Layer 2" xmlns="http://www.w3.org/2000/svg" width="723.08" height="719.65" viewBox="0 0 723.08 719.65">
  <g id="Layer_1-2" data-name="Layer 1">
    <g>
      <path d="M346.32.46c309.96-15.02,489.77,341.2,297.31,584.03C461.62,814.14,93.14,737.65,14.14,456.94-50.1,228.68,112.24,11.8,346.32.46ZM417.46,670.52l2.27,1.77c15.27-3.7,29.7-3.91,44.37,2.04,6.23,2.52,11.46,6.97,17.78,9.25,171.75-63.14,263.43-249.59,210.81-425.66C629.54,46.63,388.18-44.65,194.65,56.59,8.66,153.89-40.15,401.11,85.39,567.51c39.4,52.23,94.36,93.51,156.01,115.84,1.85.19,10.81-6.79,14.24-8.32,15.82-7.06,33.21-6.29,49.93-3.53l-41.98-20.45c-26.41-5.21-52.19-20.35-54.93-49.47,17.26.35,35.34,6.22,46.93,19.51,8.52,9.77,9.86,19.62,21.71,27.25,12.57,8.09,29.86,13.32,44.25,17.18.56-2.89-.84-1.59-2.19-2.25-25.33-12.31-43.25-27.82-44.68-58.06,1.15-4.03,9.71.44,12.27,1.51,30.35,12.74,29.15,30.57,41.41,55.49,3.79,7.71,12.67,7.74,20.68,8.29,6.52.45,38.35.38,42.21-3.23,2.9-2.72,7.88-20.43,10.05-25.41,8.72-19.96,24.57-35.74,47.13-38.28-1.35,19-6.82,33.57-21.51,45.92-8.17,6.87-15.05,9.24-24.17,13.78-1.28.64-2.63.84-.77,2.25,15.52-4.58,35.91-10.18,48.77-20.17,8.75-6.8,10.19-16.87,17.14-24.81,10.96-12.53,30.06-19.2,46.46-18.97-3.38,19.37-15.99,34.78-33.98,42.44-7.13,3.04-15.59,4.49-22.65,7.32-13.7,5.49-25.89,15.02-40.27,19.18ZM439.43,695.5c-14-3.3-26.18-11.04-36.58-20.77-27.18,6.44-55.68,6.41-82.79-.22-8.28,7.3-16.19,13.2-26.5,17.47-3.62,1.5-8.74,1.34-10.98,4.5,42.75,8.94,85.95,11.6,129.23,4.86l27.61-5.84Z" style="fill: #fff;"/>
      <path d="M433.56,57.15c-2.36,17.49-11.8,32.89-29.49,37.87-13.47,3.79-33.14-2.12-38.42,14.53,0,1.96,15.04-5.07,16.46-5.52,43.24-13.53,73.77,23.56,72.45,64.47-1.13,35.11-31.74,97.82-72.46,96.45-8.36-.28-15.98-4.63-23.98-4.08-4.08.28-6.67,2.1-10.22,2.76-50.88,9.4-86.03-61.4-83.13-104.11,2.41-35.4,28.52-65.52,66.13-58.16,8.93,1.75,16.23,6.25,24.77,8.68-3.71-17.09-13.89-29.65-27.84-39.64,9.48-32.6,31.3,15.72,34.33,27.66,4.6-6.6,6.49-14.16,11.09-20.88,14.01-20.49,36.85-25.93,60.32-20.03Z" style="fill: #fff;"/>
      <path d="M179.8,123.08c4.93,16.52.2,36.26-11.44,48.92-4.11,4.47-13.96,9.7-16.35,13.62-2.65,4.36-6.99,21.33-8.64,27.33-.99,3.59-2.04,7.29-2.49,10.99l11.57-20.89c10.57-13.54,26.22-20.07,43.37-19.06-2.38,17.02-13.7,32.69-28.95,40.48-5.66,2.89-25.43,8.44-28.05,11.91-3.61,4.78-2.1,29.36-2.93,36.51l11.47-18.99c11.27-13.08,29.1-20.92,46.47-16.96-5.26,13.7-14.26,24.92-26.67,32.76-7.09,4.48-29,14.65-36.74,14.23-4.07-.22-18.65-5.32-22.72-7.33-16.29-8.07-25.13-24.36-26.78-42.15,15.82-.58,30.08,8.36,38.4,21.55,2.46,3.91,3.98,8.95,6.33,12.62.63.98-.1,1.79,2.24,1.28l.84-31.81c-23.77-10.69-35.86-40.57-24.25-64.07,12.69,6.37,21.34,19.22,24.95,32.91l2.45,19.01,12.79-42.74c-2.5-17.01,3.43-35.9,15.65-48.21,2.33-2.35,17.07-13.96,19.49-11.9Z" style="fill: #fff;"/>
      <path d="M590.43,225.95c-.8-14.33,3.25-28.91,12.49-39.97,1.91-2.29,13.14-13.59,15.48-11.97,9.04,25.71-2.61,51.93-25.98,64.64l1.03,34.26,12.15-20.3c8.64-10.49,20.77-18.65,34.8-18.66-.16,16.5-10.48,33.66-24.92,41.52-5.24,2.85-22.73,8.92-28.26,8.24-4.82-.59-22.58-7.2-27.43-9.61-15.17-7.55-26.43-20.82-32.24-36.67.19-2.25,10.19-1.58,12.32-1.36,19.27,1.99,38.04,18.61,43.59,36.84,1.41.29,1.61-2.83,1.61-3.65,0-6.03-.2-28.96-2.55-32.87-2.6-4.34-17.91-7.78-23.03-9.94-18.58-7.83-30.79-22.35-33.99-42.44,20.47-1.94,37.16,9.13,47.13,26.3,2.17,3.73,3.51,7.81,5.37,11.65.7,1.44-.21,2.51,2.45,1.99l-11.93-39.26c-14.67-8.68-27.43-23.54-29.02-41.17-.29-3.17-.71-21.21,2.47-21.44,16.91,8,32.38,26.53,34.35,45.55.6,5.76-.52,11.96.36,17.62.96,6.14,8.97,30.91,11.47,37.48.48,1.27.59,2.94,2.27,3.21Z" style="fill: #fff;"/>
      <g>
        <path d="M82.44,400.41c-1.9,0-3.53-.64-4.9-1.91s-2.06-2.96-2.06-5.05v-41.75c-.26.33-.52.64-.78.93-.26.29-.52.6-.78.93-1.24,1.44-2.84,2.21-4.8,2.3s-3.69-.44-5.19-1.62c-1.44-1.11-2.19-2.58-2.25-4.41-.07-1.83.46-3.43,1.57-4.8,1.76-2.22,3.59-4.72,5.49-7.5,1.89-2.78,3.72-5.63,5.49-8.57,1.76-2.94,3.35-5.8,4.75-8.58,1.4-2.78,2.53-5.28,3.38-7.5.78-1.96,2.07-3.33,3.87-4.12,1.8-.78,3.64-.82,5.54-.1,1.76.65,3.02,1.8,3.77,3.43.75,1.63.74,3.43-.05,5.39-.78,2.03-1.7,4.12-2.74,6.27-1.05,2.16-2.16,4.35-3.33,6.57v63.11c0,2.09-.69,3.77-2.06,5.05-1.37,1.27-3.01,1.91-4.9,1.91ZM96.94,336.81c-1.5,0-2.81-.54-3.92-1.62-1.11-1.08-1.67-2.37-1.67-3.87s.55-2.81,1.67-3.92c1.11-1.11,2.42-1.67,3.92-1.67h52.82c1.5,0,2.79.56,3.87,1.67,1.08,1.11,1.62,2.42,1.62,3.92s-.54,2.79-1.62,3.87c-1.08,1.08-2.37,1.62-3.87,1.62h-52.82ZM116.93,397.67c-4.64,0-8.3-.46-10.98-1.37-2.68-.92-4.57-2.47-5.68-4.65-1.11-2.19-1.67-5.21-1.67-9.06s.55-6.88,1.67-9.06c1.11-2.19,3-3.74,5.68-4.66,2.68-.91,6.34-1.37,10.98-1.37h12.74c4.7,0,8.39.46,11.07,1.37,2.68.92,4.57,2.47,5.68,4.66,1.11,2.19,1.67,5.21,1.67,9.06s-.56,6.88-1.67,9.06c-1.11,2.19-3.01,3.74-5.68,4.65-2.68.91-6.37,1.37-11.07,1.37h-12.74ZM104.29,322.7c-1.44,0-2.69-.52-3.77-1.57-1.08-1.04-1.62-2.29-1.62-3.72s.54-2.78,1.62-3.82c1.08-1.04,2.33-1.57,3.77-1.57h37.73c1.5,0,2.76.52,3.77,1.57,1.01,1.05,1.52,2.32,1.52,3.82s-.51,2.68-1.52,3.72c-1.01,1.05-2.27,1.57-3.77,1.57h-37.73ZM104.29,350.63c-1.44,0-2.69-.54-3.77-1.62-1.08-1.08-1.62-2.34-1.62-3.77s.54-2.76,1.62-3.77c1.08-1.01,2.33-1.52,3.77-1.52h37.73c1.5,0,2.76.51,3.77,1.52,1.01,1.01,1.52,2.27,1.52,3.77s-.51,2.7-1.52,3.77c-1.01,1.08-2.27,1.62-3.77,1.62h-37.73ZM104.29,364.35c-1.44,0-2.69-.52-3.77-1.57-1.08-1.04-1.62-2.32-1.62-3.82s.54-2.76,1.62-3.77c1.08-1.01,2.33-1.52,3.77-1.52h37.73c1.5,0,2.76.51,3.77,1.52,1.01,1.01,1.52,2.27,1.52,3.77s-.51,2.78-1.52,3.82c-1.01,1.05-2.27,1.57-3.77,1.57h-37.73ZM117.72,386h11.27c1.37,0,2.37-.23,2.99-.69.62-.46.93-1.37.93-2.74s-.31-2.29-.93-2.74c-.62-.46-1.62-.69-2.99-.69h-11.27c-1.37,0-2.37.23-2.99.69-.62.46-.93,1.37-.93,2.74s.31,2.29.93,2.74c.62.46,1.62.69,2.99.69Z" style="fill: #fff;"/>
        <path d="M169.36,364.05c-1.57-.33-2.79-1.19-3.68-2.6-.88-1.4-1.16-3.05-.83-4.95.33-1.63.65-3.67.98-6.12.33-2.45.62-4.9.88-7.35.26-2.45.42-4.52.49-6.22.13-2.09.9-3.68,2.3-4.75,1.4-1.08,3.02-1.55,4.85-1.42,1.76.13,3.18.77,4.26,1.91,1.08,1.14,1.58,2.73,1.52,4.75-.07,1.96-.25,4.3-.54,7.01-.29,2.71-.6,5.39-.93,8.04-.33,2.65-.65,4.85-.98,6.62-.39,2.03-1.41,3.5-3.04,4.41-1.63.92-3.4,1.14-5.29.69ZM244.72,399.92c-2.03,0-3.72-.65-5.1-1.96-1.37-1.31-2.06-3.04-2.06-5.19v-31.16c-.2.07-.39.15-.59.25s-.39.18-.59.25c-1.96.65-3.74.57-5.34-.25-1.6-.82-2.66-2.21-3.18-4.17-.33-1.31-.78-2.87-1.37-4.7-.59-1.83-1.19-3.69-1.81-5.59-.62-1.89-1.19-3.59-1.71-5.1v43.51c0,2.16-.69,3.89-2.06,5.19s-3.04,1.96-5,1.96-3.64-.65-5.05-1.96c-1.41-1.31-2.11-3.04-2.11-5.19v-23.72c-.07.07-.12.1-.15.1-.03,0-.08.03-.15.1-1.9.59-3.64.47-5.24-.34-1.6-.82-2.66-2.2-3.18-4.16-.46-1.7-1.08-3.77-1.86-6.22-.78-2.45-1.54-4.79-2.25-7.01v7.64c0,9.02-1.27,17.13-3.82,24.35-2.55,7.22-6.6,13.74-12.15,19.55-1.44,1.57-3.23,2.43-5.39,2.6-2.16.16-4.05-.47-5.68-1.91-1.37-1.31-2.11-2.92-2.21-4.85s.5-3.58,1.81-4.95c3.2-3.27,5.77-6.52,7.69-9.75,1.93-3.23,3.33-6.84,4.21-10.83.88-3.98,1.32-8.72,1.32-14.21v-36.36c0-2.16.69-3.89,2.06-5.19,1.37-1.31,3.04-1.96,5-1.96s3.64.65,5.05,1.96c1.4,1.31,2.11,3.04,2.11,5.19v18.33c.33-.33.7-.62,1.13-.88.42-.26.87-.49,1.32-.69,1.89-.65,3.64-.6,5.24.15,1.6.75,2.76,1.98,3.48,3.67.52,1.18,1.08,2.74,1.67,4.7v-23.23c0-2.16.7-3.89,2.11-5.19,1.4-1.31,3.09-1.96,5.05-1.96s3.63.65,5,1.96c1.37,1.31,2.06,3.04,2.06,5.19v17.05c.85-1.18,1.93-1.99,3.23-2.45,1.89-.65,3.66-.62,5.29.1,1.63.72,2.78,1.93,3.43,3.63.33.92.74,2.01,1.22,3.28.49,1.27.96,2.6,1.42,3.97v-27.73c0-2.16.69-3.89,2.06-5.19,1.37-1.31,3.07-1.96,5.1-1.96s3.64.65,5.05,1.96c1.4,1.31,2.11,3.04,2.11,5.19v77.03c0,2.16-.7,3.89-2.11,5.19-1.41,1.31-3.09,1.96-5.05,1.96Z" style="fill: #fff;"/>
        <path d="M329.2,398.25c-1.63,1.11-3.48,1.5-5.54,1.18-2.06-.33-3.64-1.31-4.75-2.94-2.29-3.27-4.85-6.68-7.69-10.24-2.84-3.56-5.67-6.96-8.48-10.19-2.81-3.23-5.33-5.93-7.55-8.08-3.86-3.85-6.44-7.41-7.74-10.68-1.31-3.27-1.27-6.58.1-9.95,1.37-3.36,4.15-7.04,8.33-11.03,1.31-1.24,2.91-2.83,4.8-4.75,1.89-1.93,3.95-4.02,6.17-6.27,2.22-2.25,4.39-4.47,6.52-6.66,2.12-2.19,4.03-4.17,5.73-5.93,1.44-1.44,3.18-2.19,5.24-2.25,2.06-.06,3.8.59,5.24,1.96,1.5,1.37,2.27,3.09,2.3,5.15.03,2.06-.64,3.84-2.01,5.34-2.29,2.48-4.8,5.1-7.55,7.84-2.74,2.74-5.39,5.33-7.94,7.74-2.55,2.42-4.7,4.44-6.47,6.08-2.55,2.35-4.23,4.23-5.05,5.64-.82,1.41-.82,2.81,0,4.21.82,1.41,2.33,3.32,4.56,5.73,2.22,2.29,4.72,5,7.5,8.13,2.78,3.14,5.59,6.4,8.43,9.8,2.84,3.4,5.37,6.66,7.59,9.8,1.18,1.63,1.6,3.48,1.27,5.54-.33,2.06-1.34,3.68-3.04,4.85Z" style="fill: #fff;"/>
        <path d="M376.04,395.9c-1.7-1.05-2.81-2.55-3.33-4.51-.52-1.96-.26-3.79.78-5.49,3.46-5.88,6.43-12.54,8.92-19.99,2.48-7.45,4.38-14.99,5.68-22.64-1.83.2-3.58.36-5.24.49-1.67.13-3.22.23-4.65.29-2.03.13-3.79-.44-5.29-1.71-1.5-1.27-2.32-2.92-2.45-4.95-.07-2.02.55-3.77,1.86-5.24,1.31-1.47,2.97-2.24,5-2.3,2.09-.13,4.18-.28,6.27-.44,2.09-.16,4.15-.34,6.17-.54.33-3.66.42-7.09.29-10.29-.07-2.02.55-3.79,1.86-5.29,1.31-1.5,2.97-2.29,5-2.35,2.02-.06,3.79.57,5.29,1.91,1.5,1.34,2.25,3.05,2.25,5.15.06,1.37.08,2.79.05,4.26-.03,1.47-.12,3.02-.25,4.66,1.76-.33,3.43-.62,5-.88,1.96-.46,3.77-.16,5.44.88,1.67,1.05,2.73,2.55,3.18,4.51.39,2.03.05,3.86-1.03,5.49-1.08,1.63-2.63,2.65-4.65,3.04-1.31.26-2.78.52-4.41.78-1.63.26-3.37.56-5.19.88-.92,6.08-2.17,12.27-3.77,18.57-1.6,6.31-3.46,12.32-5.59,18.03-2.12,5.72-4.53,10.76-7.2,15.14-1.05,1.7-2.55,2.81-4.51,3.33-1.96.52-3.79.26-5.49-.78ZM444.55,394.04c-10.26,2.42-18.91,2.45-25.97.1-7.06-2.35-12.02-6.4-14.9-12.15-.92-1.83-1.11-3.71-.59-5.63.52-1.93,1.67-3.35,3.43-4.26,1.76-.98,3.61-1.19,5.54-.64,1.93.56,3.38,1.71,4.36,3.48,1.5,2.68,4.29,4.54,8.38,5.59,4.08,1.05,9.65.78,16.71-.78,1.96-.46,3.79-.13,5.49.98,1.7,1.11,2.74,2.68,3.14,4.7.46,1.96.13,3.76-.98,5.39-1.11,1.63-2.65,2.71-4.61,3.23ZM439.65,357.19c-2.03-.52-4.43-.87-7.2-1.03-2.78-.16-5.62-.2-8.53-.1-2.91.1-5.57.34-7.99.73-1.9.26-3.66-.13-5.29-1.18-1.63-1.04-2.61-2.51-2.94-4.41-.39-1.89-.03-3.66,1.08-5.29,1.11-1.63,2.61-2.65,4.51-3.04,3.07-.59,6.38-.95,9.95-1.08,3.56-.13,7.07-.06,10.54.2,3.46.26,6.53.72,9.21,1.37,1.89.46,3.35,1.52,4.36,3.19,1.01,1.67,1.29,3.45.83,5.34-.46,1.9-1.52,3.35-3.19,4.36-1.67,1.01-3.45,1.32-5.34.93ZM446.7,335.44c-.92.92-2.08,1.37-3.48,1.37s-2.6-.52-3.58-1.57c-.65-.72-1.65-1.8-2.99-3.23-1.34-1.44-2.47-2.68-3.38-3.72-.65-.72-.95-1.68-.88-2.89.06-1.21.52-2.27,1.37-3.19.78-.78,1.75-1.23,2.89-1.32,1.14-.1,2.2.18,3.18.83,1.11.78,2.38,1.81,3.82,3.09,1.44,1.27,2.58,2.47,3.43,3.58.85,1.05,1.26,2.22,1.22,3.53-.03,1.31-.57,2.48-1.62,3.53ZM449.05,325.93c-.72-.72-1.81-1.72-3.28-2.99-1.47-1.27-2.69-2.37-3.67-3.28-.72-.65-1.13-1.58-1.22-2.79-.1-1.21.25-2.3,1.03-3.28.72-.91,1.63-1.47,2.74-1.67,1.11-.2,2.19,0,3.23.59,1.18.65,2.53,1.54,4.07,2.65,1.54,1.11,2.83,2.19,3.87,3.23.91.98,1.42,2.12,1.52,3.43.1,1.31-.31,2.52-1.23,3.63-.85,1.05-1.98,1.62-3.38,1.72-1.41.1-2.63-.31-3.67-1.23Z" style="fill: #fff;"/>
        <path d="M517.85,398.25c-5.16,0-9.72-.93-13.67-2.79-3.95-1.86-7.06-4.67-9.31-8.43-2.25-3.76-3.38-8.44-3.38-14.06,0-1.57.29-4.05.88-7.45-1.63-.33-3.17-.67-4.61-1.03-1.44-.36-2.81-.7-4.12-1.03-1.83-.52-3.22-1.67-4.17-3.43-.95-1.76-1.13-3.59-.54-5.49.52-1.89,1.67-3.3,3.43-4.21,1.76-.91,3.59-1.08,5.49-.49.85.26,1.86.52,3.04.78,1.18.26,2.48.52,3.92.78.26-1.5.54-3,.83-4.51.29-1.5.57-3,.83-4.51-1.57-.33-3.01-.64-4.31-.93-1.31-.29-2.35-.54-3.14-.73-1.9-.52-3.32-1.65-4.26-3.38-.95-1.73-1.16-3.54-.64-5.44.52-1.89,1.65-3.32,3.38-4.26,1.73-.95,3.54-1.16,5.44-.64.59.13,1.42.31,2.5.54,1.08.23,2.3.48,3.67.74.52-2.61.96-4.98,1.32-7.1.36-2.12.6-3.87.74-5.24.26-2.02,1.22-3.61,2.89-4.75,1.67-1.14,3.51-1.55,5.54-1.23,1.96.26,3.53,1.23,4.7,2.89s1.6,3.48,1.27,5.44c-.2,1.5-.49,3.33-.88,5.49-.39,2.16-.85,4.54-1.37,7.15,1.37.2,2.58.39,3.63.59,1.96.26,3.56,1.16,4.8,2.69,1.24,1.54,1.73,3.28,1.47,5.24-.26,1.96-1.18,3.54-2.74,4.75-1.57,1.21-3.33,1.68-5.29,1.42-.59-.06-1.27-.16-2.06-.29-.78-.13-1.63-.26-2.55-.39-.26,1.44-.54,2.89-.83,4.36-.29,1.47-.57,2.89-.83,4.26.91.07,1.84.15,2.79.25.95.1,1.84.18,2.69.25,2.02.13,3.69.93,5,2.4,1.31,1.47,1.89,3.19,1.76,5.15-.07,1.96-.83,3.59-2.3,4.9-1.47,1.31-3.18,1.93-5.14,1.86-1.18-.06-2.39-.16-3.63-.29-1.24-.13-2.48-.23-3.72-.29-.2,1.18-.36,2.21-.49,3.09-.13.88-.2,1.58-.2,2.11,0,3.66,1,6.35,2.99,8.08,1.99,1.73,5.05,2.6,9.16,2.6,3.72,0,6.79-.93,9.21-2.79,2.42-1.86,3.63-4.26,3.63-7.2,0-3.66-1.7-7.25-5.1-10.78-1.37-1.5-1.93-3.28-1.67-5.34.26-2.06,1.21-3.71,2.84-4.95,1.63-1.31,3.41-1.81,5.34-1.52,1.93.29,3.58,1.19,4.95,2.7,2.74,2.88,4.79,5.98,6.12,9.31,1.34,3.33,2.01,6.8,2.01,10.39,0,4.97-1.16,9.29-3.48,12.98-2.32,3.69-5.54,6.58-9.65,8.67-4.12,2.09-8.85,3.14-14.21,3.14Z" style="fill: #fff;"/>
        <path d="M625.36,392.18c-1.96.46-3.82.18-5.59-.83s-2.91-2.5-3.43-4.46c-.46-1.96-.16-3.81.88-5.54,1.04-1.73,2.51-2.83,4.41-3.28,7.12-1.76,12.17-4.67,15.14-8.72,2.97-4.05,4.46-9.18,4.46-15.39,0-5.55-1.75-10.22-5.24-14.01-3.5-3.79-8.44-6.11-14.85-6.96-1.31,11.17-3.42,20.74-6.32,28.71-2.91,7.97-6.31,14.08-10.19,18.33-3.89,4.25-7.96,6.37-12.2,6.37-3.72,0-7.12-1.04-10.19-3.14-3.07-2.09-5.52-5.11-7.35-9.07-1.83-3.95-2.74-8.77-2.74-14.45s1.04-10.67,3.14-15.53c2.09-4.87,5.06-9.18,8.92-12.94,3.85-3.76,8.44-6.7,13.77-8.82,5.32-2.12,11.22-3.19,17.69-3.19,5.81,0,11.16.83,16.02,2.5,4.87,1.67,9.08,4.03,12.64,7.1,3.56,3.07,6.32,6.73,8.28,10.98,1.96,4.25,2.94,8.95,2.94,14.11,0,9.87-2.48,18.08-7.45,24.65-4.97,6.57-12.54,11.09-22.74,13.57ZM592.53,371.5c1.11,0,2.61-1.55,4.51-4.65,1.89-3.1,3.79-7.5,5.68-13.18,1.89-5.68,3.33-12.38,4.31-20.09-4.51,1.11-8.3,2.99-11.37,5.63-3.07,2.65-5.38,5.75-6.91,9.31-1.54,3.56-2.34,7.24-2.4,11.02-.07,4.18.47,7.22,1.62,9.11,1.14,1.9,2.66,2.84,4.56,2.84Z" style="fill: #fff;"/>
      </g>
      <g>
        <path d="M213.63,572.75c-2.82,0-5.19-.92-7.12-2.75-1.93-1.83-2.89-4.25-2.89-7.26v-25.66c-3.2,3.2-6.93,6.53-11.21,10.01-4.28,3.48-8.63,6.77-13.04,9.87-4.42,3.1-8.55,5.69-12.41,7.75-2.91,1.5-5.83,1.95-8.74,1.34-2.91-.61-5.03-2.14-6.34-4.58-1.32-2.44-1.65-4.96-.99-7.54.66-2.58,2.3-4.49,4.93-5.71,3.29-1.69,6.88-3.69,10.79-5.99,3.9-2.3,7.83-4.75,11.77-7.33,3.95-2.58,7.52-5.15,10.72-7.68h-32.43c-2.63,0-4.7-.82-6.2-2.47-1.5-1.64-2.26-3.64-2.26-5.99s.75-4.35,2.26-5.99c1.5-1.64,3.57-2.47,6.2-2.47h46.95v-6.91h-6.49c-8.08,0-14.55-.73-19.39-2.19-4.84-1.46-8.32-3.99-10.43-7.61-2.12-3.62-3.17-8.58-3.17-14.88v-9.73c0-6.3,1.06-11.23,3.17-14.81,2.12-3.57,5.59-6.08,10.43-7.54,4.84-1.46,11.3-2.19,19.39-2.19h33.56c8.18,0,14.66.73,19.46,2.19,4.79,1.46,8.25,3.97,10.36,7.54,2.12,3.57,3.17,8.51,3.17,14.81v9.73c0,6.3-1.06,11.26-3.17,14.88-2.12,3.62-5.57,6.16-10.36,7.61-4.79,1.46-11.28,2.19-19.46,2.19h-7.05v6.91h46.95c2.63,0,4.7.82,6.2,2.47,1.5,1.65,2.26,3.64,2.26,5.99s-.75,4.35-2.26,5.99c-1.5,1.65-3.57,2.47-6.2,2.47h-31.87c3.29,2.54,6.88,5.1,10.79,7.68,3.9,2.59,7.8,5.03,11.7,7.33,3.9,2.3,7.5,4.3,10.79,5.99,2.63,1.22,4.28,3.13,4.94,5.71.66,2.59.33,5.1-.99,7.54-1.32,2.44-3.43,3.97-6.34,4.58-2.92.61-5.83.16-8.74-1.34-3.95-2.16-8.2-4.82-12.76-7.97-4.56-3.15-8.98-6.51-13.25-10.08-4.28-3.57-8.01-7-11.21-10.29v26.37c0,3.01-.99,5.43-2.96,7.26-1.97,1.83-4.33,2.75-7.05,2.75ZM185.43,466.72h18.19v-6.77h-6.49c-4.61,0-7.66.38-9.17,1.13-1.5.75-2.35,2.63-2.54,5.64ZM197.13,487.73h6.49v-6.77h-18.19c.19,3.1,1.03,5.01,2.54,5.71,1.5.71,4.56,1.06,9.17,1.06ZM223.64,466.72h18.75c-.28-3.01-1.18-4.89-2.68-5.64-1.5-.75-4.51-1.13-9.02-1.13h-7.05v6.77ZM223.64,487.73h7.05c4.51,0,7.52-.35,9.02-1.06,1.5-.71,2.4-2.61,2.68-5.71h-18.75v6.77Z" style="fill: #fff;"/>
        <path d="M320.09,572.61c-2.35,0-4.35-.75-5.99-2.26-1.65-1.5-2.47-3.57-2.47-6.2v-38.35c-.47.94-.94,1.9-1.41,2.89-.47.99-.94,1.95-1.41,2.89-1.13,2.16-2.94,3.57-5.43,4.23-2.49.66-4.82.38-6.98-.85-2.07-1.22-3.34-2.89-3.81-5.01-.47-2.12-.09-4.21,1.13-6.27,1.97-3.48,4.11-7.52,6.42-12.13,2.3-4.6,4.49-9.24,6.56-13.89,2.07-4.65,3.62-8.67,4.65-12.06h-8.32c-2.26,0-4.21-.8-5.85-2.4-1.65-1.6-2.47-3.57-2.47-5.92s.82-4.21,2.47-5.85c1.64-1.64,3.59-2.47,5.85-2.47h8.6v-19.46c0-2.73.82-4.82,2.47-6.27,1.64-1.46,3.64-2.19,5.99-2.19s4.32.73,5.92,2.19c1.6,1.46,2.4,3.55,2.4,6.27v19.46h4.09c2.26,0,4.21.82,5.85,2.47,1.64,1.65,2.47,3.6,2.47,5.85v.14c1.69-1.78,3.67-2.68,5.92-2.68h7.05v-4.65h-9.87c-2.16,0-4.02-.78-5.57-2.33-1.55-1.55-2.33-3.41-2.33-5.57s.78-4.16,2.33-5.71c1.55-1.55,3.41-2.33,5.57-2.33h9.87v-4.65c0-2.73.89-4.89,2.68-6.49,1.79-1.6,3.85-2.4,6.2-2.4s4.56.8,6.34,2.4c1.79,1.6,2.68,3.76,2.68,6.49v4.65h9.17c2.16,0,4.02.78,5.57,2.33,1.55,1.55,2.33,3.45,2.33,5.71s-.78,4.02-2.33,5.57c-1.55,1.55-3.41,2.33-5.57,2.33h-9.17v4.65h6.63c3.19,0,5.45,1.36,6.77,4.09.47-1.97,1.46-3.62,2.96-4.93,1.5-1.32,3.29-1.97,5.36-1.97h9.45v-22.14c0-2.73.87-4.89,2.61-6.49,1.74-1.6,3.88-2.4,6.42-2.4s4.53.8,6.27,2.4c1.74,1.6,2.61,3.76,2.61,6.49v22.14h.99c2.35,0,4.35.82,5.99,2.47,1.64,1.65,2.47,3.64,2.47,5.99s-.82,4.35-2.47,5.99c-1.65,1.65-3.64,2.47-5.99,2.47h-.99v62.46c0,7.15-1.72,12.31-5.15,15.51-3.43,3.19-8.48,4.79-15.16,4.79-3.1,0-5.62-.82-7.54-2.47-1.93-1.65-3.08-3.88-3.45-6.7-.28-2.63.4-4.98,2.04-7.05,1.64-2.07,3.88-3.29,6.7-3.67,1.88-.28,3.12-.7,3.74-1.27.61-.56.92-1.6.92-3.1v-20.45c-1.13,1.13-2.63,1.97-4.51,2.54-2.63.66-4.93.45-6.91-.63-1.97-1.08-3.2-2.75-3.67-5.01-.19-1.41-.54-3.15-1.06-5.22-.52-2.07-1.06-4.23-1.62-6.49-.56-2.26-1.08-4.18-1.55-5.78.09.66.16,1.32.21,1.97.05.66.07,1.36.07,2.11,0,3.76-.52,6.82-1.55,9.17-1.04,2.35-2.82,4.14-5.36,5.36.19.09.37.14.56.14s.38.05.56.14c2.35.66,4.02,1.97,5.01,3.95.99,1.97,1.1,4.09.35,6.34-.19.66-.61,1.81-1.27,3.45-.66,1.65-1.36,3.41-2.12,5.29l2.68-.42c2.35-.37,4.35.05,5.99,1.27,1.64,1.22,2.61,2.92,2.89,5.08.37,2.07.02,4.04-1.06,5.92-1.08,1.88-3.03,3.06-5.85,3.52-2.54.47-5.62,1.03-9.24,1.69-3.62.66-7.45,1.31-11.49,1.97-4.04.66-7.92,1.27-11.63,1.83-3.71.56-6.89,1.03-9.52,1.41-2.63.37-4.86-.17-6.7-1.62-1.83-1.46-2.94-3.36-3.31-5.71-.38-2.44.14-4.58,1.55-6.42s3.43-2.89,6.06-3.17c1.03-.09,2.14-.21,3.31-.35,1.17-.14,2.37-.26,3.6-.35-1.22-.85-2.02-1.97-2.4-3.38-.09-.47-.4-1.39-.92-2.75-.52-1.36-1.01-2.73-1.48-4.09-.47-1.36-.8-2.23-.99-2.61-.75-2.07-.66-4.11.28-6.13.94-2.02,2.44-3.36,4.51-4.02.47-.19.94-.33,1.41-.42.47-.09.94-.14,1.41-.14-2.73-1.13-4.75-2.91-6.06-5.36-.09.09-.17.19-.21.28-.05.09-.17.19-.35.28-1.79,1.5-3.83,2.14-6.13,1.9-2.3-.23-4.16-1.29-5.57-3.17-.28-.47-.63-.99-1.06-1.55-.42-.56-.87-1.17-1.34-1.83v48.22c0,2.63-.8,4.7-2.4,6.2-1.6,1.5-3.57,2.26-5.92,2.26ZM402.85,513.53v-24.67h-9.45c-3.38,0-5.88-1.55-7.47-4.65-.38,1.79-1.27,3.24-2.68,4.37-1.41,1.13-3.06,1.69-4.93,1.69h-31.58c-2.07,0-3.88-.78-5.43-2.33-1.55-1.55-2.33-3.36-2.33-5.43v-.14c-1.69,2.16-3.86,3.24-6.49,3.24h-4.09v4.94c1.13,1.41,2.49,3.1,4.09,5.08,1.6,1.97,3.19,3.93,4.79,5.85,1.6,1.93,3.01,3.64,4.23,5.15.56-4.89,2.42-8.29,5.57-10.22,3.15-1.93,8.29-2.89,15.44-2.89,6.11,0,10.74.68,13.89,2.04,3.15,1.36,5.29,3.69,6.42,6.98,0-1.69.52-3.24,1.55-4.65,1.03-1.41,2.44-2.35,4.23-2.82,2.44-.66,4.65-.54,6.63.35,1.97.89,3.29,2.42,3.95,4.58.47,1.32,1.03,3.27,1.69,5.85.66,2.59,1.32,5.15,1.97,7.68ZM359.42,547.23l3.24-.42c.47-1.6,1.03-3.53,1.69-5.78.66-2.26,1.27-4.37,1.83-6.34.56-1.97.94-3.38,1.13-4.23.37-1.31,1.08-2.49,2.12-3.52-1.97.28-4.28.42-6.91.42-1.5,0-2.96-.05-4.37-.14-1.41-.09-2.73-.23-3.95-.42,1.32.94,2.26,2.11,2.82,3.52.19.38.54,1.27,1.06,2.68.51,1.41,1.01,2.8,1.48,4.16.47,1.36.8,2.33.99,2.89.85,2.91.47,5.31-1.13,7.19ZM362.53,513.53c2.26,0,3.71-.19,4.37-.56.66-.37.99-1.22.99-2.54s-.33-2.16-.99-2.54c-.66-.37-2.12-.56-4.37-.56s-3.6.19-4.3.56c-.71.38-1.06,1.22-1.06,2.54s.35,2.16,1.06,2.54c.71.38,2.14.56,4.3.56Z" style="fill: #fff;"/>
        <path d="M489.29,570.21c-7.9,0-14.52-.59-19.88-1.76-5.36-1.18-9.64-3.2-12.83-6.06-3.2-2.87-5.5-6.86-6.91-11.98-1.41-5.12-2.12-11.63-2.12-19.53v-49.35c0-7.99.71-14.54,2.12-19.67,1.41-5.12,3.71-9.14,6.91-12.06,3.19-2.91,7.47-4.96,12.83-6.13,5.36-1.17,11.98-1.76,19.88-1.76h40.61c7.9,0,14.52.59,19.88,1.76,5.36,1.18,9.63,3.22,12.83,6.13,3.2,2.92,5.5,6.93,6.91,12.06,1.41,5.12,2.12,11.68,2.12,19.67v49.35c0,7.9-.71,14.41-2.12,19.53-1.41,5.12-3.71,9.12-6.91,11.98-3.2,2.87-7.47,4.89-12.83,6.06-5.36,1.17-11.98,1.76-19.88,1.76h-40.61ZM489.29,553.01h13.11c-1.04-1.5-1.55-3.24-1.55-5.22v-13.68c-3.2,2.07-6.75,4.23-10.65,6.49-3.9,2.26-7.21,4.04-9.94,5.36-2.07.94-4.09,1.13-6.06.56-1.97-.56-3.38-1.74-4.23-3.52-.85-1.97-.94-3.9-.28-5.78.66-1.88,2.07-3.29,4.23-4.23,1.97-.94,4.44-2.09,7.4-3.45,2.96-1.36,5.8-2.75,8.53-4.16-3.86-.56-6.49-1.83-7.9-3.81s-2.12-5.26-2.12-9.87c0-4.04.54-7.07,1.62-9.09,1.08-2.02,2.98-3.38,5.71-4.09,2.73-.71,6.53-1.06,11.42-1.06h22.42c5.17,0,9.09.35,11.77,1.06,2.68.7,4.51,2.07,5.5,4.09.99,2.02,1.48,5.05,1.48,9.09,0,2.82-.28,5.22-.85,7.19,2.35-1.88,4.93-2.16,7.75-.85,1.5.75,2.56,2,3.17,3.74.61,1.74.4,3.41-.63,5.01-.66.94-1.6,2.35-2.82,4.23-1.22,1.88-2.35,3.52-3.38,4.93.19.09.56.24,1.13.42,1.88.56,3.19,1.72,3.95,3.45.75,1.74.75,3.45,0,5.15-.85,2.07-2.28,3.45-4.3,4.16-2.02.71-4.11.68-6.27-.07-2.54-.94-5.66-2.4-9.38-4.37-3.71-1.97-7.26-3.99-10.64-6.06v9.17c0,1.97-.52,3.71-1.55,5.22h13.96c4.79,0,8.67-.23,11.63-.7,2.96-.47,5.22-1.43,6.77-2.89,1.55-1.46,2.58-3.62,3.1-6.49.52-2.87.78-6.74.78-11.63v-50.2c0-4.89-.26-8.79-.78-11.7-.52-2.91-1.55-5.1-3.1-6.56-1.55-1.46-3.81-2.42-6.77-2.89-2.96-.47-6.84-.7-11.63-.7h-13.39c1.03,1.32,1.55,2.87,1.55,4.65v.99h19.04c2.16,0,3.78.61,4.86,1.83,1.08,1.22,1.62,2.73,1.62,4.51s-.54,3.29-1.62,4.51c-1.08,1.22-2.7,1.83-4.86,1.83h-19.04v3.24h25.8c2.16,0,3.78.63,4.87,1.9,1.08,1.27,1.62,2.84,1.62,4.72s-.54,3.34-1.62,4.65c-1.08,1.32-2.7,1.97-4.87,1.97h-68.38c-2.07,0-3.69-.66-4.86-1.97-1.18-1.32-1.76-2.87-1.76-4.65,0-1.88.59-3.45,1.76-4.72,1.17-1.27,2.8-1.9,4.86-1.9h25.8v-3.24h-19.03c-2.07,0-3.67-.61-4.79-1.83-1.13-1.22-1.69-2.73-1.69-4.51s.56-3.29,1.69-4.51c1.13-1.22,2.73-1.83,4.79-1.83h19.03v-.99c0-1.78.52-3.34,1.55-4.65h-13.54c-4.79,0-8.67.24-11.63.7-2.96.47-5.22,1.43-6.77,2.89-1.55,1.46-2.59,3.64-3.1,6.56-.52,2.91-.78,6.82-.78,11.7v50.2c0,4.89.26,8.77.78,11.63.52,2.87,1.55,5.03,3.1,6.49,1.55,1.46,3.81,2.42,6.77,2.89,2.96.47,6.84.7,11.63.7ZM500.85,514.09h17.91c1.97,0,2.96-.8,2.96-2.4,0-1.69-.99-2.54-2.96-2.54h-17.91c-1.97,0-2.96.85-2.96,2.54,0,1.6.99,2.4,2.96,2.4ZM530.6,530.73c.75-1.03,1.55-2.19,2.4-3.45.85-1.27,1.6-2.42,2.26-3.45-1.32.75-3.08,1.27-5.29,1.55-2.21.28-4.96.47-8.25.56,1.32.75,2.73,1.55,4.23,2.4,1.5.85,3.05,1.65,4.65,2.4Z" style="fill: #fff;"/>
      </g>
    </g>
  </g>
</svg>